<svg width="459" height="459" xmlns="http://www.w3.org/2000/svg">
 <g>
  <title>Layer 1</title>
  <g id="svg_1">
   <g opacity="0.8" id="high-quality">
    <path fill="#ffffff" id="svg_2" d="m408,25.5h-357c-28.049999,0 -51,22.950001 -51,51v306c0,28.049988 22.950001,51 51,51h357c28.049988,0 51,-22.950012 51,-51v-306c0,-28.049999 -22.950012,-51 -51,-51zm-204,280.5h-38.25v-51h-51v51h-38.25v-153h38.25v63.75h51v-63.75h38.25v153l0,0zm178.5,-25.5c0,15.299988 -10.200012,25.5 -25.5,25.5h-20.399994v38.25h-38.25v-38.25h-17.850006c-15.299988,0 -25.5,-10.200012 -25.5,-25.5v-102c0,-15.300003 10.200012,-25.5 25.5,-25.5h76.5c15.299988,0 25.5,10.199997 25.5,25.5v102l0,0zm-89.25,-12.75h51v-76.5h-51v76.5l0,0z"/>
   </g>
  </g>
  <g id="svg_3"/>
  <g id="svg_4"/>
  <g id="svg_5"/>
  <g id="svg_6"/>
  <g id="svg_7"/>
  <g id="svg_8"/>
  <g id="svg_9"/>
  <g id="svg_10"/>
  <g id="svg_11"/>
  <g id="svg_12"/>
  <g id="svg_13"/>
  <g id="svg_14"/>
  <g id="svg_15"/>
  <g id="svg_16"/>
  <g id="svg_17"/>
 </g>
</svg>